<svg xmlns="http://www.w3.org/2000/svg" version="1.1" xmlns:xlink="http://www.w3.org/1999/xlink" width="1000" height="1000"><g clip-path="url(#SvgjsClipPath1003)"><rect width="1000" height="1000" fill="#ffffff"></rect><g transform="matrix(3.5,0,0,3.5,150,150)"><svg xmlns="http://www.w3.org/2000/svg" version="1.1" xmlns:xlink="http://www.w3.org/1999/xlink" width="200" height="200"><svg xmlns="http://www.w3.org/2000/svg" version="1.1" xmlns:xlink="http://www.w3.org/1999/xlink" viewBox="0 0 200 200"><rect width="200" height="200" fill="url('#gradient')"></rect><defs><linearGradient id="gradient" gradientTransform="rotate(45 0.5 0.5)"><stop offset="0%" stop-color="#ffffff"></stop><stop offset="100%" stop-color="#ffffff"></stop></linearGradient><clipPath id="SvgjsClipPath1003"><rect width="1000" height="1000" x="0" y="0" rx="350" ry="350"></rect></clipPath></defs><g><g fill="#000000" transform="matrix(5.383034647550777,0,0,5.383034647550777,32.117627299188,138.27275192928428)" stroke="#c06a3e" stroke-width="0"><path d="M12.24-14.22L12.24-11.57L7.97-11.57L7.97 0L4.54 0L4.54-11.57L0.35-11.57L0.35-14.22L12.24-14.22ZM19.30-4.82L17.11-4.82L17.11 0L13.68 0L13.68-14.22L19.36-14.22Q20.99-14.22 22.24-13.62Q23.50-13.02 24.18-11.91Q24.87-10.80 24.87-9.39L24.87-9.39Q24.87-7.31 23.38-6.07Q21.89-4.82 19.30-4.82L19.30-4.82ZM17.11-11.57L17.11-7.47L19.36-7.47Q20.35-7.47 20.87-7.97Q21.40-8.47 21.40-9.38L21.40-9.38Q21.40-10.37 20.86-10.97Q20.32-11.56 19.39-11.57L19.39-11.57L17.11-11.57Z"></path></g></g></svg></svg></g></g></svg>